<?xml version="1.0" encoding="utf-8"?>
<!-- Generator: Adobe Illustrator 19.0.0, SVG Export Plug-In . SVG Version: 6.00 Build 0)  -->
<svg version="1.1" id="Layer_1" xmlns="http://www.w3.org/2000/svg" xmlns:xlink="http://www.w3.org/1999/xlink" x="0px" y="0px"
	 viewBox="0 0 123.7 126" style="enable-background:new 0 0 123.7 126;" xml:space="preserve">
<style type="text/css">
	.st0{fill:#356EA7;}
	.st1{fill:#C34637;}
	.st2{fill:#356EA5;}
	.st3{fill:#CA4638;}
</style>
<path id="XMLID_3_" class="st0" d="M0,50h35L10.2,24.8c-1.1,1.8-2.6,4.4-4.2,7.7c-1,2-1.9,3.8-2.8,5.7C2.1,40.7,0.7,44.7,0,50z"/>
<polygon id="XMLID_2_" class="st1" points="12.6,22.2 17.5,17.2 49.9,50 40.6,50 "/>
<path id="XMLID_4_" class="st2" d="M25.1,10.5c0,0,13-9.2,24.8-10v34.8L25.1,10.5z"/>
<path id="XMLID_8_" class="st0" d="M123.7,49.5h-35l24.8-25.2c1.1,1.8,2.6,4.4,4.2,7.7c1,2,1.9,3.8,2.8,5.7
	C121.5,40.2,122.9,44.2,123.7,49.5z"/>
<polygon id="XMLID_7_" class="st1" points="111.1,21.7 106.2,16.7 73.8,49.5 83.1,49.5 "/>
<path id="XMLID_6_" class="st2" d="M98.6,10c0,0-13-9.2-24.8-10v34.8L98.6,10z"/>
<path id="XMLID_14_" class="st0" d="M123.5,76.5h-35l24.8,25.2c1.1-1.8,2.6-4.4,4.2-7.7c1-2,1.9-3.8,2.8-5.7
	C121.4,85.8,122.8,81.8,123.5,76.5z"/>
<polygon id="XMLID_13_" class="st1" points="111,104.3 106,109.3 73.6,76.5 83,76.5 "/>
<path id="XMLID_12_" class="st2" d="M98.5,116c0,0-13,9.2-24.8,10V91.2L98.5,116z"/>
<path id="XMLID_11_" class="st0" d="M0.1,76.5h35l-24.8,25.2c-1.1-1.8-2.6-4.4-4.2-7.7c-1-2-1.9-3.8-2.8-5.7
	C2.3,85.8,0.9,81.8,0.1,76.5z"/>
<polygon id="XMLID_10_" class="st1" points="12.7,104.3 17.6,109.3 50,76.5 40.7,76.5 "/>
<path id="XMLID_9_" class="st2" d="M25.2,116c0,0,13,9.2,24.8,10V91.2L25.2,116z"/>
<polygon id="XMLID_5_" class="st3" points="54.8,0 68.9,0 68.9,56.2 123.7,56.2 123.7,70.2 68.6,70.2 68.6,126 54.8,125.6 
	54.8,70.2 0,70.2 0,56.1 55,56.1 "/>
</svg>
