<?xml version="1.0" encoding="utf-8"?>
<!-- Generator: Adobe Illustrator 19.0.0, SVG Export Plug-In . SVG Version: 6.00 Build 0)  -->
<svg version="1.1" id="Layer_1" xmlns="http://www.w3.org/2000/svg" xmlns:xlink="http://www.w3.org/1999/xlink" x="0px" y="0px"
	 viewBox="0 0 85.8 85.8" style="enable-background:new 0 0 85.8 85.8;" xml:space="preserve">
<style type="text/css">
	.st0{fill:#FEC40D;}
	.st1{fill:#C62127;}
</style>
<g id="XMLID_2_">
	<g id="XMLID_7_">
		<path id="XMLID_11_" class="st0" d="M78.9,19.9c4.2,6.6,6.7,14.5,6.7,23s-2.5,16.3-6.7,23l0,0H7l0,0c-4.2-6.6-6.7-14.5-6.7-23
			s2.5-16.3,6.7-23l0,0L78.9,19.9L78.9,19.9z"/>
		<path id="XMLID_10_" class="st1" d="M78.9,19.9L78.9,19.9L7,20l0,0c7.6-11.8,20.8-19.7,36-19.7C58,0.2,71.3,8.1,78.9,19.9z"/>
		<path id="XMLID_9_" class="st1" d="M78.8,65.8L78.8,65.8C71.3,77.7,58,85.6,42.9,85.6c-15.1,0-28.4-7.9-36-19.7l0,0H78.8z"/>
	</g>
	<g id="XMLID_8_">
	</g>
</g>
</svg>
